<svg xmlns="http://www.w3.org/2000/svg" fill="none" viewBox="0 0 24 24" id="Favorite--Streamline-Rounded-Material" height="24" width="24">

  <path fill="#000000" d="M12 20.4999c-0.17835 0 -0.35985 -0.03225 -0.5445 -0.09675 -0.18465 -0.0645 -0.3471 -0.16765 -0.48725 -0.3095L9.65 18.8749c-2.06665 -1.91665 -3.85835 -3.74585 -5.375 -5.4875C2.758335 11.64575 2 9.8249 2 7.9249c0 -1.5025 0.504165 -2.75735 1.5125 -3.7645 1.008335 -1.007 2.25415 -1.5105 3.7375 -1.5105 0.85 0 1.69165 0.20417 2.525 0.6125 0.83335 0.408335 1.575 1.07917 2.225 2.0125 0.73335 -0.93333 1.49165 -1.604165 2.275 -2.0125 0.78335 -0.40833 1.60835 -0.6125 2.475 -0.6125 1.48335 0 2.72915 0.5035 3.7375 1.5105 1.00835 1.00715 1.5125 2.262 1.5125 3.7645 0 1.9 -0.75835 3.72085 -2.275 5.4625 -1.51665 1.74165 -3.30835 3.57085 -5.375 5.4875l-1.325 1.225c-0.1375 0.13965 -0.29685 0.24125 -0.478 0.30475 -0.18135 0.0635 -0.36365 0.09525 -0.547 0.09525Zm-0.65 -13.575c-0.45 -0.81665 -1.04165 -1.48335 -1.775 -2 -0.73335 -0.516665 -1.50835 -0.775 -2.325 -0.775 -1.1 0 -2 0.35417 -2.7 1.0625C3.85 5.92075 3.5 6.8285 3.5 7.93565c0 0.9595 0.324 1.96965 0.972 3.0305 0.648 1.061 1.423 2.09015 2.325 3.0875 0.902 0.9975 1.83635 1.9254 2.803 2.78375s1.76665 1.57915 2.4 2.1625c0.63335 -0.56665 1.43335 -1.28335 2.4 -2.15 0.96665 -0.86665 1.9 -1.80415 2.8 -2.8125 0.9 -1.00835 1.675 -2.04325 2.325 -3.10475 0.65 -1.0615 0.975 -2.0641 0.975 -3.00775 0 -1.1 -0.35415 -2.00415 -1.0625 -2.7125 -0.70835 -0.70833 -1.60415 -1.0625 -2.6875 -1.0625 -0.83335 0 -1.6125 0.25417 -2.3375 0.7625 -0.725 0.50835 -1.32915 1.17915 -1.8125 2.0125 -0.08335 0.13335 -0.175 0.22915 -0.275 0.2875 -0.1 0.05835 -0.21665 0.0875 -0.35 0.0875 -0.13335 0 -0.25415 -0.02915 -0.3625 -0.0875s-0.19585 -0.15415 -0.2625 -0.2875Z" stroke-width="0.5"></path>
</svg>