<svg xmlns="http://www.w3.org/2000/svg" fill="none" viewBox="0 0 24 24" id="Local-Mall--Streamline-Rounded-Material" height="24" width="24">
  <desc>
    Local Mall Streamline Icon: https://streamlinehq.com
  </desc>
  <path fill="#000000" d="M4.5 22c-0.4125 0 -0.765585 -0.1469 -1.05925 -0.44075C3.146915 21.2656 3 20.9125 3 20.5V7.25c0 -0.4125 0.146915 -0.76565 0.44075 -1.0595C3.734415 5.89685 4.0875 5.75 4.5 5.75h2.75c0 -1.3 0.44585 -2.416665 1.3375 -3.35C9.47915 1.466665 10.575 1 11.875 1c1.34865 0 2.49835 0.458335 3.449 1.375C16.27465 3.291665 16.75 4.416665 16.75 5.75H19.5c0.4125 0 0.76565 0.14685 1.0595 0.4405 0.29365 0.29385 0.4405 0.647 0.4405 1.0595V20.5c0 0.4125 -0.14685 0.7656 -0.4405 1.05925C20.26565 21.8531 19.9125 22 19.5 22H4.5Zm0 -1.5h15V7.25H4.5V20.5Zm4.25 -14.75h6.5c0 -0.916665 -0.3125 -1.6875 -0.9375 -2.3125S12.91665 2.5 12 2.5s-1.6875 0.3125 -2.3125 0.9375S8.75 4.833335 8.75 5.75Zm3.243 7.5c1.22885 0 2.34135 -0.42915 3.3375 -1.2875 0.99635 -0.85835 1.4945 -1.82085 1.4945 -2.8875 0 -0.18335 -0.075 -0.34585 -0.225 -0.4875 -0.15 -0.14165 -0.3346 -0.2125 -0.55375 -0.2125 -0.1805 0 -0.34165 0.0625 -0.4835 0.1875 -0.14185 0.125 -0.2294 0.2875 -0.26275 0.4875 -0.16665 0.78335 -0.5625 1.42915 -1.1875 1.9375C13.4875 11.49585 12.78335 11.75 12 11.75c-0.78335 0 -1.4875 -0.25415 -2.1125 -0.7625 -0.625 -0.50835 -1.02085 -1.15415 -1.1875 -1.9375 -0.03335 -0.2 -0.125 -0.3625 -0.275 -0.4875 -0.15 -0.125 -0.31665 -0.1875 -0.5 -0.1875 -0.2 0 -0.375 0.07085 -0.525 0.2125 -0.15 0.14165 -0.225 0.30415 -0.225 0.4875 0 1.06785 0.49585 2.0306 1.4875 2.88825 0.99165 0.85785 2.10185 1.28675 3.3305 1.28675Z" stroke-width="0.5"></path>
</svg>